<?xml version="1.0" encoding="utf-8"?>
<!-- Generator: Adobe Illustrator 22.1.0, SVG Export Plug-In . SVG Version: 6.00 Build 0)  -->
<svg version="1.1" id="Layer_1" xmlns="http://www.w3.org/2000/svg" xmlns:xlink="http://www.w3.org/1999/xlink" x="0px" y="0px"
	 viewBox="0 0 150 50" style="enable-background:new 0 0 150 50;" xml:space="preserve">
<style type="text/css">
	.st0{fill:#F7F0F0;stroke:#0B0B0B;stroke-miterlimit:10;}
</style>
<g>
	<path class="st0" d="M24.2,10.4l-1.4,0c-1.3,0-2.4,0.9-3.5,2.8c-1.1,2-2,4.7-2.6,8.2c-0.2,1.5-0.4,3-0.5,4.5l-2.4,0l1.4-15.5l-3,0
		L8.7,26l-1.2,0c-1.2,0-2.2,0.5-3.2,1.4c-1.2,1.1-2.1,2.9-2.7,5.3c-0.4,1.5-0.5,3-0.5,4.5c0,1.8,0.3,3.2,0.8,4.1
		c0.4,0.7,0.9,1.1,1.5,1.1c2,0,4-4.4,6-13l1.9,0l-1.1,11.1l2.2,0l1.1-11.1l2.7,0c0.1,4.1,0.7,7,1.9,8.9c0.9,1.4,2.1,2.1,3.6,2.1
		l-0.5,5.3c0.2,0,0.4,0,0.5,0c1.2,0,2-1.6,2.3-4.8c0.6-6.7,1.1-11.7,1.4-15.1l-2.3,0l-1,11.1c-0.9,0-1.6-0.6-2.2-1.9
		c-0.7-1.5-1-3.7-1-6.6c0-3.5,0.3-6.7,1.1-9.7c0.8-3.1,1.6-4.7,2.6-4.7l0.1,0c0,0.5-0.1,1,0,1.5c0,1.5,0.2,2.7,0.6,3.7
		c0.3,0.9,0.7,1.4,1.2,1.4c0.4,0,0.8-0.5,1.1-1.4c0.3-1,0.5-2.2,0.5-3.7c0-1.4-0.2-2.7-0.6-3.7C25,10.9,24.7,10.4,24.2,10.4z
		 M6.3,34.7c-0.8,2-1.4,3-1.9,3c-0.4,0-0.6-0.6-0.6-1.8c0-1.4,0.2-2.8,0.7-4.1c0.6-1.5,1.7-2.3,3.3-2.3C7.5,31.2,7,32.9,6.3,34.7z
		 M11.6,26l-1.4,0l2.6-12L11.6,26z"/>
	<path class="st0" d="M36.2,10.9c-0.4-1-0.8-1.5-1.3-1.5c-0.5,0-0.9,0.5-1.2,1.6c-0.4,1.1-0.5,2.4-0.5,4c0,1.6,0.2,3,0.6,4
		c0.4,1,0.8,1.5,1.3,1.5c-0.1,1.9-0.3,4-0.6,6.5c-0.8,6.4-1.7,9.7-2.9,9.7c-0.3,0-0.6-0.3-0.8-0.9c-0.2-0.6-0.3-1.5-0.3-2.5
		c0-1,0-2,0.1-3l1.8-19.9l-5.4,0.1l-0.9,5.4l3.5,0l-1.4,15c-0.1,1.2-0.2,2.3-0.1,3.4c0,2.4,0.3,4.2,0.8,5.4c0.5,1.1,1.1,1.6,1.8,1.6
		c1.4,0,2.5-1.2,3.3-3.7c0.6-1.9,1.2-5.3,1.9-10.1c0.2-1.8,0.4-3.8,0.6-6c0.2-2.6,0.3-4.7,0.3-6.3C36.8,13.3,36.6,11.9,36.2,10.9z"
		/>
	<path class="st0" d="M40.8,10.2c-1.2,0-2.1,1-2.9,2.8c-0.9,2.1-1.3,5.1-1.2,8.8c0,2.5,0.3,4.5,1,5.9c0.5,1.3,1.2,1.9,2,1.9
		c0.5,0,1-0.4,1.3-1.2c0.4-1,0.6-2.3,0.6-4c0-1.5-0.2-2.8-0.6-3.7c-0.3-0.9-0.7-1.4-1.1-1.3c-0.4,0-0.8,0.4-1,1.2
		c-0.3,0.8-0.5,1.9-0.6,3.2c-0.2-0.2-0.4-0.9-0.4-2.1c0-1.8,0.2-3.2,0.7-4.4c0.4-1.1,0.9-1.6,1.4-1.6l3.6,0l-2,21.1l-2.9-1.5
		c-0.1,0-0.1,0-0.2,0c-0.3,0-0.6,0.6-0.8,1.8c-0.1,0.7-0.3,1.8-0.4,3.4l4.4,0c1.3,0,2.1-2.1,2.5-6.4l2.2-23.7L40.8,10.2z"/>
	<polygon class="st0" points="49.4,18.2 47.4,40.1 49.6,40.1 51.7,18.2 	"/>
	<path class="st0" d="M53.4,28.3c2.3-3.1,3.5-6.8,3.4-10.9c-0.1-4.9-1.2-7.4-3.5-7.3L47,10.1l-0.9,5.4l6.4-0.1c1,0,1.6,1.2,1.6,3.8
		c0,2.2-0.4,4-1.2,5.5c-0.1,0.3-0.5,0.7-1,1.4c-0.6,0.7-0.9,1.1-1.1,1.2l1.3,9.3c0.2,1.3,0.3,2.1,0.5,2.5c0.2,0.6,0.4,0.9,0.8,0.9
		l2.4,0c0.3,0,0.6-0.3,0.9-0.9c0.3-0.6,0.4-1.5,0.4-2.6l-2.5,0L53.4,28.3z"/>
	<polygon class="st0" points="60.4,18.1 58.4,40 60.6,39.9 62.7,18.1 	"/>
	<path class="st0" d="M64.4,28.2c2.3-3.1,3.5-6.8,3.4-10.9c-0.1-4.9-1.2-7.4-3.5-7.3L58,10l-0.9,5.4l6.4-0.1c1,0,1.6,1.2,1.6,3.8
		c0,2.2-0.4,4-1.2,5.5c-0.1,0.3-0.5,0.7-1,1.4c-0.6,0.7-0.9,1.1-1.1,1.2l1.3,9.3c0.2,1.3,0.3,2.1,0.5,2.5c0.2,0.6,0.4,0.9,0.8,0.9
		l2.4,0c0.3,0,0.6-0.3,0.9-0.9c0.3-0.6,0.4-1.5,0.4-2.6l-2.5,0L64.4,28.2z"/>
	<path class="st0" d="M75.3,18.5c0.3,1,0.7,1.5,1.2,1.5c0.5,0,0.8-0.5,1.2-1.5c0.3-1,0.5-2.2,0.4-3.6c0-1.4-0.2-2.6-0.5-3.6
		c-0.3-1-0.7-1.5-1.1-1.5l-1.9,0c-0.9,0-1.7,0.6-2.3,1.7c-0.8,1.4-1.2,3.5-1.2,6.3c0,1.4,0.2,3.1,0.4,4.8c-0.8,0.8-1.5,2-2.1,3.7
		c-0.7,2.1-1.1,4.4-1,6.9c0,2.3,0.4,4.1,1.1,5.2c0.5,0.9,1.2,1.3,2,1.3l5.1-0.1c0.4,0,0.7-0.3,0.9-0.8c0.3-0.6,0.5-1.5,0.5-2.6
		l-4.6,0c-0.7,0-1.2-0.1-1.5-0.4c-0.6-0.5-0.9-1.6-0.9-3.3c0-2.3,0.2-4.1,0.7-5.5c0.2-0.6,0.6-1.4,1.3-2.6c0.5-0.8,0.7-1.6,0.7-2.4
		c0-0.7-0.1-1.6-0.2-2.9c-0.1-1.2-0.2-2.2-0.2-2.9c0-0.8,0.1-1.6,0.2-2.2c0.2-0.7,0.4-1,0.6-1l0.7,0c-0.1,0.5-0.1,1.1-0.1,1.7
		C74.8,16.3,75,17.5,75.3,18.5z"/>
	<path class="st0" d="M89.7,9.7l-6,0.1l-0.9,5.4l6-0.1c0.7,0,1.3,0.5,1.7,1.4c0.4,1.1,0.6,2.8,0.7,5.3c0,1.5-0.1,3.4-0.4,5.6
		c-0.3,2.5-0.9,4.7-1.7,6.4c-0.8,1.7-1.6,2.6-2.4,2.6l1.7-18.5l-2.3,0l-2,21.9l2.1,0c1.4,0,2.7-1,3.9-2.9c1.3-2.1,2.3-5.1,3-8.9
		c0.5-2.9,0.7-5.7,0.7-8.2c0-3.3-0.5-5.9-1.3-7.7C91.6,10.4,90.7,9.7,89.7,9.7z"/>
	<path class="st0" d="M97.9,9.6c-1.2,0-2.1,1-2.9,2.8c-0.9,2.1-1.3,5.1-1.2,8.8c0,2.5,0.3,4.5,1,5.9c0.5,1.3,1.2,1.9,2,1.9
		c0.5,0,1-0.4,1.3-1.2c0.4-1,0.6-2.3,0.6-4c0-1.5-0.2-2.8-0.6-3.7c-0.3-0.9-0.7-1.4-1.1-1.3c-0.4,0-0.7,0.4-1,1.2
		c-0.3,0.8-0.5,1.9-0.6,3.2C95.1,22.9,95,22.2,95,21c0-1.8,0.2-3.2,0.7-4.4c0.4-1.1,0.9-1.6,1.4-1.6l3.6,0l-2,21.1l-2.9-1.5
		c-0.1,0-0.1,0-0.2,0c-0.3,0-0.6,0.6-0.8,1.8c-0.1,0.7-0.3,1.8-0.4,3.4l4.4,0c1.3,0,2.1-2.1,2.5-6.4l2.2-23.7L97.9,9.6z"/>
	<path class="st0" d="M110.5,18.1c0.3,1,0.7,1.5,1.2,1.5c0.5,0,0.8-0.5,1.2-1.5c0.3-1,0.5-2.2,0.4-3.6c0-1.4-0.2-2.6-0.5-3.6
		c-0.3-1-0.7-1.5-1.1-1.5l-1.9,0c-0.9,0-1.7,0.6-2.3,1.7c-0.8,1.4-1.3,3.5-1.2,6.3c0,1.4,0.2,3.1,0.4,4.8c-0.8,0.8-1.5,2-2.1,3.7
		c-0.7,2.1-1.1,4.4-1,6.9c0,2.3,0.4,4.1,1.1,5.2c0.5,0.9,1.2,1.3,2,1.3l5.1-0.1c0.4,0,0.7-0.3,0.9-0.8c0.3-0.6,0.5-1.5,0.5-2.6
		l-4.6,0c-0.7,0-1.2-0.1-1.5-0.4c-0.6-0.5-0.9-1.6-0.9-3.3c0-2.3,0.2-4.1,0.7-5.5c0.2-0.6,0.6-1.4,1.3-2.6c0.5-0.8,0.7-1.6,0.7-2.4
		c0-0.7-0.1-1.6-0.2-2.9c-0.1-1.2-0.2-2.2-0.2-2.9c0-0.8,0.1-1.6,0.2-2.2c0.2-0.7,0.4-1,0.6-1l0.7,0c-0.1,0.5-0.1,1.1-0.1,1.7
		C110,16,110.1,17.2,110.5,18.1z"/>
	<path class="st0" d="M126.5,18c0.3-1,0.5-2.2,0.5-3.6c0-1.4-0.2-2.6-0.6-3.7c-0.3-1-0.7-1.5-1.2-1.5l-1.5,0c-2.6,0-3.9,2.6-3.8,7.8
		c0,1.6,0.2,3.8,0.6,6.7c0.4,2.9,0.6,5.1,0.6,6.6c0,2.2-0.2,3.9-0.8,5.1c-0.5,1-1,1.6-1.7,1.6c-0.5,0-1.1-0.3-1.5-1
		c-0.6-0.9-1-2.2-1-3.8c0-1.4,0.2-2.5,0.6-3.2c0.3-0.6,0.7-0.8,1.2-0.8l1.9,0l-0.5-3.4l-2.4,0c-2.3,0-3.4,2.4-3.4,7
		c0,3.2,0.7,5.5,2,7c0.9,1.1,1.9,1.6,3.1,1.6c1.3,0,2.4-0.7,3.3-2.2c1.2-2,1.8-4.9,1.8-8.8c0-1.8-0.2-4.3-0.6-7.5
		c-0.4-3.2-0.6-5.3-0.6-6.2c0-1.8,0.3-2.7,0.9-2.7c0,0,0.2,0,0.4,0.1c0,0.5,0,1,0,1.3c0,1.4,0.2,2.6,0.5,3.6c0.3,1,0.7,1.5,1.2,1.5
		C125.8,19.5,126.2,19,126.5,18z"/>
	<path class="st0" d="M129.4,35.4c-0.6-0.5-0.9-1.6-0.9-3.3c0-2.3,0.2-4.1,0.7-5.5c0.2-0.6,0.6-1.4,1.3-2.6c0.5-0.8,0.7-1.6,0.7-2.4
		c0-0.7-0.1-1.6-0.2-2.9c-0.1-1.2-0.2-2.2-0.2-2.9c0-0.8,0.1-1.6,0.2-2.2c0.2-0.7,0.4-1,0.6-1l0.7,0c-0.1,0.5-0.1,1.1-0.1,1.7
		c0,1.4,0.2,2.6,0.5,3.6c0.3,1,0.7,1.5,1.2,1.5c0.5,0,0.8-0.5,1.2-1.5c0.3-1,0.5-2.2,0.4-3.6c0-1.4-0.2-2.6-0.5-3.6
		c-0.3-1-0.7-1.5-1.1-1.5l-1.9,0c-0.9,0-1.7,0.6-2.3,1.7c-0.8,1.4-1.3,3.5-1.2,6.3c0,1.4,0.2,3.1,0.4,4.8c-0.8,0.8-1.5,2-2.1,3.7
		c-0.7,2.1-1.1,4.4-1,6.9c0,2.3,0.4,4.1,1.1,5.2c0.5,0.9,1.2,1.3,2,1.3l5.1-0.1c0.4,0,0.7-0.3,0.9-0.8c0.3-0.6,0.5-1.5,0.5-2.6
		l-4.6,0C130.1,35.8,129.6,35.7,129.4,35.4z"/>
	<path class="st0" d="M144.9,13.6c0.3-0.4,0.5-0.6,0.6-0.5c0,1.7,0.1,3,0.5,4.1c0.3,1.1,0.7,1.6,1.2,1.6c0.4,0,0.8-0.5,1.1-1.4
		c0.3-1,0.5-2.2,0.5-3.7c0-1.6-0.2-2.9-0.6-3.9c-0.4-0.9-0.8-1.3-1.3-1.3c-2.9,0-4.7,3.6-5.3,10.7l-0.9,9.8c-0.4,4.4-1,6.7-1.7,6.7
		c-0.2,0-0.7-0.3-1.2-0.9c-0.6-0.6-1-0.9-1.2-0.9c-0.5,0-0.9,1.7-1.2,5.2l11.5-0.1c0.9,0,1.5-1.2,1.6-3.4l-7.4,0.1
		c1.8-2.2,2.8-6.1,2.8-11.9C144,17.9,144.4,14.6,144.9,13.6z"/>
</g>
</svg>
